<?xml version="1.0" encoding="UTF-8"?>
<svg width="643px" height="116px" viewBox="0 0 643 116" version="1.1" xmlns="http://www.w3.org/2000/svg" xmlns:xlink="http://www.w3.org/1999/xlink">
    <!-- Generator: Sketch 51.2 (57519) - http://www.bohemiancoding.com/sketch -->
    <title>acode</title>
    <desc>Created with Sketch.</desc>
    <defs></defs>
    <g id="Page-1" stroke="none" stroke-width="1" fill="none" fill-rule="evenodd" stroke-linecap="square">
        <g id="acode" transform="translate(7.000000, 7.000000)" stroke="#000000" stroke-width="15">
            <g id="e" transform="translate(527.000000, 0.000000)">
                <path d="M1,1 L101,1" id="Line"></path>
                <path d="M1,1 L1,101" id="Line"></path>
                <path d="M101.208333,1.5 L101.208333,56" id="Line"></path>
                <path d="M1,56.25 L101,56.25" id="Line"></path>
                <path d="M1,101 L101,101" id="Line"></path>
            </g>
            <g id="d" transform="translate(396.000000, 0.000000)">
                <path d="M0,1 L100,1" id="Line"></path>
                <path d="M100.25,1 L100.25,101" id="Line"></path>
                <path d="M0,101 L100,101" id="Line"></path>
            </g>
            <g id="o" transform="translate(263.000000, 0.000000)">
                <path d="M1,1 L101,1" id="Line"></path>
                <path d="M1,1 L1,101" id="Line"></path>
                <path d="M101.25,1 L101.25,101" id="Line"></path>
                <path d="M1,101 L101,101" id="Line"></path>
            </g>
            <g id="c" transform="translate(132.000000, 0.000000)">
                <path d="M1,1 L101,1" id="Line"></path>
                <path d="M1,1 L1,101" id="Line"></path>
                <path d="M1,101 L101,101" id="Line"></path>
            </g>
            <g id="a">
                <path d="M1,1 L101,1" id="Line"></path>
                <path d="M101.25,1 L101.25,101" id="Line"></path>
                <path d="M1,45 L1,100" id="Line"></path>
                <path d="M1,41 L101,41" id="Line"></path>
                <path d="M1,101 L101,101" id="Line"></path>
            </g>
        </g>
    </g>
</svg>